<?xml version='1.0' encoding='utf-8'?>
<!DOCTYPE svg PUBLIC '-//W3C//DTD SVG 1.1//EN' 'http://www.w3.org/Graphics/SVG/1.1/DTD/svg11.dtd'>
<!-- Uploaded to: SVG Repo, www.svgrepo.com, Generator: SVG Repo Mixer Tools -->
<svg  height="800px" width="800px" version="1.1" xmlns="http://www.w3.org/2000/svg" viewBox="0 0 512 512" xmlns:xlink="http://www.w3.org/1999/xlink" enable-background="new 0 0 512 512">
<symbol id = "flower" viewBox="0 0 512 512">
  <g>
    <path d="m307.4,256c150.7-41.1 199.2-114.9 193-173-4.4-41.7-38.3-72-80.7-72-27.1,0-115.1,14.7-163.7,193.5-48.6-178.8-136.6-193.5-163.7-193.5-42.3,0-76.3,30.3-80.8,72-6.2,58.1 42.4,131.9 193.1,173-150.7,41.1-199.2,114.9-193.1,173 4.4,41.7 38.4,72 80.8,72 27.1,0 115-14.7 163.6-193.4 48.7,178.7 136.7,193.4 163.8,193.4 42.4,0 76.4-30.3 80.8-71.9 6.2-58.2-42.4-132-193.1-173.1zm112.3-204.1c21.8-7.10543e-15 37.9,14.3 40.2,35.5 3.4,32.1-28.7,93.1-165,129.8 32.8-121.3 86.5-165.3 124.8-165.3zm-367.6,35.4c2.3-21.2 18.4-35.5 40.2-35.5 38.3,0 92,44 124.8,165.3-136.3-36.7-168.4-97.7-165-129.8zm40.3,372.8c-21.8,0-38-14.3-40.2-35.5-3.4-32.1 28.7-93.1 165-129.8-32.8,121.3-86.6,165.3-124.8,165.3zm367.5-35.4c-2.3,21.2-18.4,35.4-40.2,35.4-38.3,0-92-44-124.8-165.2 136.3,36.7 168.4,97.7 165,129.8z"/>
 
 </g>
</symbol>
</svg>