<svg xmlns="http://www.w3.org/2000/svg" viewBox="0 0 32 32">
<symbol id="mail" viewBox="0 0 32 32"><title>14-Mail_1</title><g id="_15-Mail" data-name="15-Mail"><path d="M28,28H11a4,4,0,1,1,4-4,1,1,0,0,1-2,0,2,2,0,1,0-2,2H28a2,2,0,0,0,2-2V8a2,2,0,0,0-2-2H4A2,2,0,0,0,2,8V23a1,1,0,0,1-2,0V8A4,4,0,0,1,4,4H28a4,4,0,0,1,4,4V24A4,4,0,0,1,28,28Z"/><path d="M16,18a1,1,0,0,1-.618-.214l-14-11A1,1,0,1,1,2.618,5.214L16,15.728,29.382,5.214a1,1,0,1,1,1.236,1.572l-14,11A1,1,0,0,1,16,18Z"/><circle cx="5" cy="27" r="1"/><circle cx="1" cy="27" r="1"/></g>
</symbol></svg>